paper_minjerk_10cycles
version=1
nRows=305
nColumns=3
inDegrees=yes
endheader
time	r_shoulder_elev	r_elbow_flex
15.0000	0.000000	63.209877
15.0100	0.000000	62.411932
15.0200	0.000000	61.598669
15.0300	0.000000	60.770591
15.0400	0.000000	59.928216
15.0500	0.000000	59.072079
15.0600	0.000000	58.202733
15.0700	0.000000	57.320744
15.0800	0.000000	56.426693
15.0900	0.000000	55.521176
15.1000	0.000000	54.604800
15.1100	0.000000	53.678185
15.1200	0.000000	52.741962
15.1300	0.000000	51.796773
15.1400	0.000000	50.843270
15.1500	0.000000	49.882114
15.1600	0.000000	48.913973
15.1700	0.000000	47.939526
15.1800	0.000000	46.959454
15.1900	0.000000	45.974449
15.2000	0.000000	44.985205
15.2100	0.000000	43.992421
15.2200	0.000000	42.996802
15.2300	0.000000	41.999052
15.2400	0.000000	40.999881
15.2500	0.000000	40.000000
15.2600	0.000000	39.000119
15.2700	0.000000	38.000948
15.2800	0.000000	37.003198
15.2900	0.000000	36.007579
15.3000	0.000000	35.014795
15.3100	0.000000	34.025551
15.3200	0.000000	33.040546
15.3300	0.000000	32.060474
15.3400	0.000000	31.086027
15.3500	0.000000	30.117886
15.3600	0.000000	29.156730
15.3700	0.000000	28.203227
15.3800	0.000000	27.258038
15.3900	0.000000	26.321815
15.4000	0.000000	25.395200
15.4100	0.000000	24.478824
15.4200	0.000000	23.573307
15.4300	0.000000	22.679256
15.4400	0.000000	21.797267
15.4500	0.000000	20.927921
15.4600	0.000000	20.071784
15.4700	0.000000	19.229409
15.4800	0.000000	18.401331
15.4900	0.000000	17.588068
15.5000	0.000000	16.790123
15.5100	0.000000	16.007979
15.5200	0.000000	15.242101
15.5300	0.000000	14.492932
15.5400	0.000000	13.760897
15.5500	0.000000	13.046400
15.5600	0.000000	12.349821
15.5700	0.000000	11.671518
15.5800	0.000000	11.011826
15.5900	0.000000	10.371055
15.6000	0.000000	9.749491
15.6100	0.000000	9.147394
15.6200	0.000000	8.564996
15.6300	0.000000	8.002504
15.6400	0.000000	7.460094
15.6500	0.000000	6.937916
15.6600	0.000000	6.436089
15.6700	0.000000	5.954702
15.6800	0.000000	5.493813
15.6900	0.000000	5.053448
15.7000	0.000000	4.633600
15.7100	0.000000	4.234229
15.7200	0.000000	3.855261
15.7300	0.000000	3.496587
15.7400	0.000000	3.158063
15.7500	0.000000	2.839506
15.7600	0.000000	2.540700
15.7700	0.000000	2.261387
15.7800	0.000000	2.001273
15.7900	0.000000	1.760024
15.8000	0.000000	1.537264
15.8100	0.000000	1.332579
15.8200	0.000000	1.145512
15.8300	0.000000	0.975562
15.8400	0.000000	0.822187
15.8500	0.000000	0.684800
15.8600	0.000000	0.562769
15.8700	0.000000	0.455417
15.8800	0.000000	0.362021
15.8900	0.000000	0.281810
15.9000	0.000000	0.213965
15.9100	0.000000	0.157621
15.9200	0.000000	0.111861
15.9300	0.000000	0.075719
15.9400	0.000000	0.048177
15.9500	0.000000	0.028168
15.9600	0.000000	0.014570
15.9700	0.000000	0.006210
15.9800	0.000000	0.001859
15.9900	0.000000	0.000235
16.0000	0.000000	0.000000
16.0100	0.000000	0.000000
16.0200	0.000000	0.000000
16.0300	0.000000	0.000000
16.0400	0.000000	0.000000
16.0500	0.000000	0.000000
16.0600	0.000000	0.000000
16.0700	0.000000	0.000000
16.0800	0.000000	0.000000
16.0900	0.000000	0.000000
16.1000	0.000000	0.000000
16.1100	0.000000	0.000000
16.1200	0.000000	0.000000
16.1300	0.000000	0.000000
16.1400	0.000000	0.000000
16.1500	0.000000	0.000000
16.1600	0.000000	0.000000
16.1700	0.000000	0.000000
16.1800	0.000000	0.000000
16.1900	0.000000	0.000000
16.2000	0.000000	0.000000
16.2100	0.000000	0.000000
16.2200	0.000000	0.000000
16.2300	0.000000	0.000000
16.2400	0.000000	0.000000
16.2500	0.000000	0.000000
16.2600	0.000000	0.000000
16.2700	0.000000	0.000000
16.2800	0.000000	0.000000
16.2900	0.000000	0.000000
16.3000	0.000000	0.000000
16.3100	0.000000	0.000000
16.3200	0.000000	0.000000
16.3300	0.000000	0.000000
16.3400	0.000000	0.000000
16.3500	0.000000	0.000000
16.3600	0.000000	0.000000
16.3700	0.000000	0.000000
16.3800	0.000000	0.000000
16.3900	0.000000	0.000000
16.4000	0.000000	0.000000
16.4100	0.000000	0.000000
16.4200	0.000000	0.000000
16.4300	0.000000	0.000000
16.4400	0.000000	0.000000
16.4500	0.000000	0.000000
16.4600	0.000000	0.000000
16.4700	0.000000	0.000000
16.4800	0.000000	0.000000
16.4900	0.000000	0.000000
16.5000	0.000000	0.000000
16.5100	0.000000	0.000000
16.5200	0.000000	0.000000
16.5300	0.000000	0.000000
16.5400	0.000000	0.000000
16.5500	0.000000	0.000000
16.5600	0.000000	0.000000
16.5700	0.000000	0.000000
16.5800	0.000000	0.000000
16.5900	0.000000	0.000000
16.6000	0.000000	0.000000
16.6100	0.000000	0.000000
16.6200	0.000000	0.000000
16.6300	0.000000	0.000000
16.6400	0.000000	0.000000
16.6500	0.000000	0.000000
16.6600	0.000000	0.000000
16.6700	0.000000	0.000000
16.6800	0.000000	0.000000
16.6900	0.000000	0.000000
16.7000	0.000000	0.000000
16.7100	0.000000	0.000000
16.7200	0.000000	0.000000
16.7300	0.000000	0.000000
16.7400	0.000000	0.000000
16.7500	0.000000	0.000000
16.7600	0.000000	0.000000
16.7700	0.000000	0.000000
16.7800	0.000000	0.000000
16.7900	0.000000	0.000000
16.8000	0.000000	0.000000
16.8100	0.000000	0.000000
16.8200	0.000000	0.000000
16.8300	0.000000	0.000000
16.8400	0.000000	0.000000
16.8500	0.000000	0.000000
16.8600	0.000000	0.000000
16.8700	0.000000	0.000000
16.8800	0.000000	0.000000
16.8900	0.000000	0.000000
16.9000	0.000000	0.000000
16.9100	0.000000	0.000000
16.9200	0.000000	0.000000
16.9300	0.000000	0.000000
16.9400	0.000000	0.000000
16.9500	0.000000	0.000000
16.9600	0.000000	0.000000
16.9700	0.000000	0.000000
16.9800	0.000000	0.000000
16.9900	0.000000	0.000000
17.0000	0.000000	0.000000
17.0100	0.000000	0.000000
17.0200	0.000000	0.000000
17.0300	0.000000	0.000000
17.0400	0.000000	0.000000
17.0500	0.000000	0.000000
17.0600	0.000000	0.000000
17.0700	0.000000	0.000000
17.0800	0.000000	0.000000
17.0900	0.000000	0.000000
17.1000	0.000000	0.000000
17.1100	0.000000	0.000000
17.1200	0.000000	0.000000
17.1300	0.000000	0.000000
17.1400	0.000000	0.000000
17.1500	0.000000	0.000000
17.1600	0.000000	0.000000
17.1700	0.000000	0.000000
17.1800	0.000000	0.000000
17.1900	0.000000	0.000000
17.2000	0.000000	0.000000
17.2100	0.000000	0.000000
17.2200	0.000000	0.000000
17.2300	0.000000	0.000000
17.2400	0.000000	0.000000
17.2500	0.000000	0.000000
17.2600	0.000000	0.000000
17.2700	0.000000	0.000000
17.2800	0.000000	0.000000
17.2900	0.000000	0.000000
17.3000	0.000000	0.000000
17.3100	0.000000	0.000000
17.3200	0.000000	0.000000
17.3300	0.000000	0.000000
17.3400	0.000000	0.000000
17.3500	0.000000	0.000000
17.3600	0.000000	0.000000
17.3700	0.000000	0.000000
17.3800	0.000000	0.000000
17.3900	0.000000	0.000000
17.4000	0.000000	0.000000
17.4100	0.000000	0.000000
17.4200	0.000000	0.000000
17.4300	0.000000	0.000000
17.4400	0.000000	0.000000
17.4500	0.000000	0.000000
17.4600	0.000000	0.000000
17.4700	0.000000	0.000000
17.4800	0.000000	0.000000
17.4900	0.000000	0.000000
17.5000	0.000000	0.000000
17.5100	0.000000	0.000000
17.5200	0.000000	0.000000
17.5300	0.000000	0.000000
17.5400	0.000000	0.000000
17.5500	0.000000	0.000000
17.5600	0.000000	0.000000
17.5700	0.000000	0.000000
17.5800	0.000000	0.000000
17.5900	0.000000	0.000000
17.6000	0.000000	0.000000
17.6100	0.000000	0.000000
17.6200	0.000000	0.000000
17.6300	0.000000	0.000000
17.6400	0.000000	0.000000
17.6500	0.000000	0.000000
17.6600	0.000000	0.000000
17.6700	0.000000	0.000000
17.6800	0.000000	0.000000
17.6900	0.000000	0.000000
17.7000	0.000000	0.000000
17.7100	0.000000	0.000000
17.7200	0.000000	0.000000
17.7300	0.000000	0.000000
17.7400	0.000000	0.000000
17.7500	0.000000	0.000000
17.7600	0.000000	0.000000
17.7700	0.000000	0.000000
17.7800	0.000000	0.000000
17.7900	0.000000	0.000000
17.8000	0.000000	0.000000
17.8100	0.000000	0.000000
17.8200	0.000000	0.000000
17.8300	0.000000	0.000000
17.8400	0.000000	0.000000
17.8500	0.000000	0.000000
17.8600	0.000000	0.000000
17.8700	0.000000	0.000000
17.8800	0.000000	0.000000
17.8900	0.000000	0.000000
17.9000	0.000000	0.000000
17.9100	0.000000	0.000000
17.9200	0.000000	0.000000
17.9300	0.000000	0.000000
17.9400	0.000000	0.000000
17.9500	0.000000	0.000000
17.9600	0.000000	0.000000
17.9700	0.000000	0.000000
17.9800	0.000000	0.000000
17.9900	0.000000	0.000000
18.0000	0.000000	0.000000
18.0100	0.000000	0.000235
18.0200	0.000000	0.001859
18.0300	0.000000	0.006210
18.0400	0.000000	0.014570
